<svg xmlns="http://www.w3.org/2000/svg" width="44" height="44">
    <symbol id="idIco" viewBox="0 0 44 44">
        <path fill="currentColor" d="M14.1504 4.49198L3 10.7996V2.54134C3 1.63726 3.48003 0.801433 4.26102 0.34597C5.04174 -0.109208 6.00577 -0.115771 6.79248 0.329412L14.1504 4.49198ZM33.5095 28.557V15.4431L41.1904 19.7881C41.988 20.239 42.482 21.084 42.482 22.0001C42.482 22.9158 41.988 23.7608 41.1904 24.212L33.5095 28.557ZM3 33.2002L14.1504 39.5081L6.79248 43.6707C6.00577 44.1156 5.04174 44.1093 4.26102 43.6538C3.48003 43.1984 3 42.3626 3 41.4588V33.2002ZM6.15598 31.193C4.20562 30.0899 3 28.0224 3 25.782C3 21.8273 3 16.0542 3 16.0542L15.2124 22.9627V36.3162C15.2124 36.3162 9.77427 33.2401 6.15598 31.193ZM30.2087 26.7983C30.2087 29.039 29.0028 31.1062 27.0528 32.2096C23.5887 34.1691 18.5132 37.0401 18.5132 37.0401V22.9627L30.2087 16.3466V26.7983ZM14.4414 8.11969C16.3409 7.04543 18.6645 7.04543 20.5638 8.11969C24.061 10.098 29.3055 13.065 29.3055 13.065L16.8629 20.1037L5.05973 13.4268C5.05973 13.4268 10.7572 10.204 14.4414 8.11969Z"/>
    </symbol>
</svg>
