<svg xmlns="http://www.w3.org/2000/svg" width="44" height="44">
    <symbol id="idIco" viewBox="0 0 44 44">
        <path fill-rule="evenodd" clip-rule="evenodd" fill="currentColor" d="M22 44C34.1503 44 44 34.1503 44 22C44 9.84974 34.1503 0 22 0C9.84974 0 0 9.84974 0 22C0 34.1503 9.84974 44 22 44ZM26.2236 11C28.361 11.3499 30.4418 11.9693 32.4129 12.8425C35.8083 17.6461 37.4954 23.0639 36.8725 29.3151C34.5782 30.9564 32.0088 32.203 29.2769 33C28.6618 32.2013 28.1179 31.3535 27.6512 30.4658C28.5404 30.1442 29.3986 29.7477 30.2161 29.2808C30.0037 29.1416 29.7937 28.9863 29.5884 28.8242C27.2144 29.9044 24.6233 30.4645 21.9999 30.4645C19.3765 30.4645 16.7855 29.9044 14.4115 28.8242C14.2086 28.9749 13.9985 29.1301 13.7838 29.2808C14.5997 29.747 15.4564 30.1427 16.344 30.4635C15.8767 31.3517 15.3328 32.2002 14.7182 33C11.9887 32.1998 9.42125 30.9526 7.1274 29.3128C6.59649 23.9224 7.65831 18.4543 11.5752 12.847C13.5483 11.9738 15.6304 11.3529 17.7692 11C18.0615 11.506 18.3262 12.0265 18.562 12.5594C20.8388 12.2274 23.1541 12.2274 25.4308 12.5594C25.6665 12.0264 25.9311 11.5059 26.2236 11ZM14.3147 23.1005C14.3147 24.6986 15.537 25.9977 17.0165 25.9977C18.5243 25.9977 19.6899 24.6986 19.7159 23.1005C19.7418 21.5023 18.529 20.1918 17.0118 20.1918C15.4945 20.1918 14.3147 21.5023 14.3147 23.1005ZM24.284 23.1005C24.284 24.6986 25.5016 25.9977 26.9834 25.9977C28.4912 25.9977 29.6545 24.6986 29.6804 23.1005C29.7064 21.5023 28.503 20.1918 26.9834 20.1918C25.4638 20.1918 24.284 21.5023 24.284 23.1005Z"/>
    </symbol>
</svg>