<svg xmlns="http://www.w3.org/2000/svg" width="189" height="44">
    <symbol id="idIco" viewBox="0 0 189 44">
        <path fill-rule="evenodd" clip-rule="evenodd" fill="currentColor" d="M37.7738 0H167.018C179.158 0 189 9.85 189 22C189 34.15 179.158 44 167.018 44H21.9819C9.84188 44 0 34.15 0 22C0 9.85 9.84188 0 21.9819 0H28.0638L21.81 21.61L21.5972 22.367C19.426 29.893 21.9069 36.255 30.7836 36.352C31.9077 33.501 33.4774 29.563 35.4937 24.539H30.6867L35.8424 6.616L35.9004 6.5L37.7738 0ZM30.8026 36.372H30.9774C39.6213 36.372 48.518 29.971 50.7081 22.386C52.7624 15.325 49.2733 9.487 41.8694 8.711L37.548 19.515H42.5089L30.8026 36.372ZM75.4837 30.577C76.2481 31.771 77.3342 32.712 78.743 33.399C80.2907 34.155 82.1432 34.533 84.2994 34.533C86.6964 34.533 88.8487 34.041 90.7571 33.058C91.4095 32.722 92.019 32.344 92.5866 31.924L91.9671 34.173H100.091L102.72 24.711C103.081 23.44 103.596 22.498 104.266 21.887C104.936 21.275 105.727 20.969 106.637 20.969C107.499 20.969 108.065 21.251 108.334 21.815C108.602 22.378 108.587 23.2 108.289 24.279L105.555 34.173H113.679L114.555 30.986C115.211 32.045 116.042 32.874 117.048 33.471C118.24 34.179 119.483 34.533 120.777 34.533C122.383 34.533 123.817 34.125 125.077 33.309C125.49 33.042 125.886 32.735 126.264 32.39L125.766 34.173H133.423L137.108 20.803H138.237L136.793 26.037C136.302 27.832 136.261 29.368 136.668 30.645C137.076 31.922 137.873 32.889 139.061 33.547C140.248 34.204 141.727 34.533 143.496 34.533C144.506 34.533 145.5 34.39 146.492 34.248C148.56 33.952 150.5 33.015 151.791 32.037C152.39 32.578 153.088 33.038 153.883 33.417C155.444 34.161 157.302 34.533 159.459 34.533C160.945 34.533 162.427 34.353 163.904 33.993C165.381 33.633 166.826 32.998 168.238 32.086L165.236 27.157C164.578 27.613 163.869 27.955 163.108 28.183C162.348 28.411 161.597 28.525 160.853 28.525C159.583 28.525 158.639 28.267 158.019 27.751C157.601 27.403 157.345 26.893 157.251 26.222H171.023C171.184 25.694 171.328 25.143 171.455 24.567C171.583 23.991 171.67 23.404 171.716 22.804C171.846 21.101 171.565 19.602 170.874 18.307C170.182 17.012 169.121 15.993 167.693 15.249C166.264 14.505 164.495 14.134 162.386 14.134C159.941 14.134 157.765 14.625 155.856 15.609C153.948 16.592 152.425 17.935 151.288 19.638C150.152 21.341 149.501 23.272 149.336 25.43C149.275 26.223 149.302 26.971 149.416 27.675C148.303 28.178 146.568 28.697 145.469 27.554C145.182 27.256 145.18 26.707 145.361 25.999L146.797 20.803H149.689L151.419 14.545H148.525L150.479 7.478H141.914L139.976 14.5H138.844L138.846 14.494H130.722L130.148 16.575C129.758 15.931 129.252 15.429 128.629 15.069C127.551 14.446 126.245 14.134 124.711 14.134C123.297 14.134 121.939 14.416 120.638 14.979C119.336 15.543 118.161 16.334 117.113 17.354C116.993 17.47 116.877 17.588 116.763 17.709C116.344 16.604 115.651 15.754 114.684 15.159C113.574 14.476 112.204 14.134 110.575 14.134C109.233 14.134 107.846 14.482 106.415 15.177C105.735 15.508 105.097 15.931 104.503 16.446L105.047 14.494H97.3906L96.3595 18.234C95.5911 16.974 94.477 15.985 93.0172 15.267C91.4815 14.511 89.623 14.134 87.4418 14.134C85.0698 14.134 82.9226 14.625 81.0021 15.609C80.4106 15.912 79.8541 16.249 79.3325 16.62L81.8544 7.478H73.7301L71.2292 16.526C70.7406 15.744 70.0882 15.168 69.2698 14.799C68.2846 14.356 67.1336 14.134 65.8157 14.134C64.4018 14.134 63.044 14.416 61.743 14.979C60.4421 15.543 59.2671 16.334 58.2179 17.354C57.1698 18.373 56.3175 19.566 55.6621 20.933C55.0056 22.3 54.6159 23.8 54.491 25.43C54.3421 27.373 54.6179 29.022 55.3163 30.377C56.0158 31.732 56.961 32.764 58.153 33.471C59.345 34.179 60.589 34.533 61.8829 34.533C63.3927 34.533 64.7506 34.161 65.9586 33.417C66.4432 33.118 66.9008 32.778 67.3314 32.395L66.8348 34.173H74.4915L75.4837 30.577ZM65.428 28.129C64.5177 28.129 63.8263 27.841 63.3557 27.265C62.8841 26.69 62.6833 25.946 62.7532 25.035C62.8231 24.123 63.033 23.332 63.3837 22.66C63.7354 21.989 64.194 21.467 64.7615 21.095C65.3291 20.724 65.9605 20.538 66.656 20.538C67.5662 20.538 68.2577 20.825 68.7283 21.401C69.1999 21.977 69.4007 22.72 69.3308 23.632C69.2608 24.543 69.051 25.335 68.7003 26.006C68.3486 26.678 67.896 27.199 67.3404 27.571C66.7839 27.943 66.1474 28.129 65.428 28.129ZM85.2516 28.201C84.3404 28.201 83.65 27.907 83.1803 27.319C82.7097 26.732 82.5099 25.97 82.5818 25.035C82.6538 24.099 82.8656 23.29 83.2173 22.606C83.569 21.923 84.0286 21.395 84.5962 21.023C85.1637 20.652 85.7952 20.466 86.4906 20.466C87.4248 20.466 88.1193 20.783 88.5739 21.419C89.0285 22.055 89.2244 22.792 89.1594 23.632C89.0885 24.567 88.8766 25.377 88.5249 26.06C88.1732 26.744 87.7186 27.271 87.1631 27.643C86.6075 28.015 85.97 28.201 85.2516 28.201ZM157.895 22.3C158.206 21.559 158.643 20.947 159.206 20.466C159.821 19.938 160.62 19.674 161.603 19.674C162.297 19.674 162.874 19.824 163.329 20.124C163.786 20.424 164.096 20.843 164.257 21.383C164.34 21.659 164.37 21.965 164.345 22.3H157.895ZM124.323 28.129C123.412 28.129 122.722 27.841 122.25 27.265C121.779 26.69 121.579 25.946 121.648 25.035C121.718 24.123 121.928 23.332 122.279 22.66C122.63 21.989 123.089 21.467 123.657 21.095C124.224 20.724 124.856 20.538 125.551 20.538C126.462 20.538 127.152 20.825 127.624 21.401C128.095 21.977 128.296 22.72 128.226 23.632C128.156 24.543 127.945 25.335 127.595 26.006C127.244 26.678 126.79 27.199 126.235 27.571C125.679 27.943 125.042 28.129 124.323 28.129Z"/>
    </symbol>
</svg>
