<svg xmlns="http://www.w3.org/2000/svg" width="44" height="44">
    <symbol id="idIco" viewBox="0 0 44 44">
        <path fill="currentColor" d="M41.0488 11.2318C39.0815 7.77649 36.413 5.04096 33.0426 3.02454C29.6717 1.00801 25.9916 0 21.9998 0C18.0085 0 14.3272 1.00832 10.957 3.02454C7.58627 5.04086 4.91785 7.77649 2.95055 11.2318C0.98355 14.6869 0 18.46 0 22.5508C0 27.4649 1.39862 31.8837 4.19657 35.8085C6.99421 39.7335 10.6084 42.4495 15.0387 43.9568C15.5544 44.0549 15.9362 43.9859 16.1844 43.7515C16.4327 43.5168 16.5567 43.2228 16.5567 42.8709C16.5567 42.8122 16.5518 42.2838 16.5423 41.2853C16.5324 40.2868 16.5278 39.4156 16.5278 38.6724L15.8689 38.7892C15.4489 38.8681 14.9189 38.9015 14.2791 38.892C13.6396 38.8829 12.9757 38.8142 12.2883 38.6864C11.6006 38.5598 10.961 38.2662 10.369 37.8062C9.77721 37.3461 9.35712 36.744 9.1088 36.0006L8.82235 35.3249C8.63142 34.875 8.33083 34.3753 7.92017 33.8275C7.50952 33.2792 7.09424 32.9076 6.67416 32.7118L6.47359 32.5647C6.33995 32.4669 6.21594 32.3489 6.10126 32.212C5.98668 32.0751 5.9009 31.9381 5.84361 31.8009C5.78622 31.6636 5.83378 31.551 5.98678 31.4627C6.13979 31.3743 6.4163 31.3314 6.81753 31.3314L7.39022 31.4191C7.77218 31.4976 8.24465 31.732 8.80821 32.1238C9.37147 32.5152 9.8345 33.0241 10.1974 33.6502C10.6369 34.453 11.1663 35.0648 11.7873 35.4857C12.4077 35.9067 13.0333 36.1168 13.6634 36.1168C14.2934 36.1168 14.8376 36.0678 15.2961 35.9705C15.7542 35.8725 16.1839 35.7254 16.5851 35.5298C16.757 34.2176 17.2249 33.2096 17.9885 32.505C16.9001 32.3878 15.9216 32.2112 15.0524 31.9764C14.1838 31.7413 13.2861 31.3597 12.36 30.8307C11.4335 30.3023 10.6648 29.6463 10.0539 28.8636C9.4429 28.0805 8.94145 27.0525 8.55026 25.7803C8.15886 24.5077 7.96311 23.0397 7.96311 21.3758C7.96311 19.0067 8.71761 16.9907 10.2263 15.3266C9.51956 13.5455 9.58628 11.5488 10.4267 9.33679C10.9805 9.16041 11.8018 9.29277 12.8902 9.73306C13.9788 10.1736 14.7758 10.5509 15.2821 10.8638C15.7884 11.1765 16.194 11.4416 16.4996 11.6565C18.276 11.1477 20.1092 10.8933 21.9996 10.8933C23.89 10.8933 25.7236 11.1477 27.5001 11.6565L28.5886 10.9521C29.3329 10.4821 30.2119 10.0514 31.2235 9.65984C32.2356 9.2685 33.0096 9.16072 33.5446 9.3371C34.4036 11.5492 34.4801 13.5458 33.7732 15.3269C35.2818 16.991 36.0366 19.0075 36.0366 21.3761C36.0366 23.04 35.8401 24.5126 35.4493 25.795C35.0581 27.0777 34.5523 28.1047 33.9318 28.8783C33.3107 29.6518 32.5371 30.3027 31.6111 30.831C30.6848 31.3596 29.7868 31.7412 28.9182 31.9763C28.0491 32.2114 27.0706 32.3881 25.9822 32.5055C26.9748 33.3861 27.4713 34.7761 27.4713 36.6749V42.8701C27.4713 43.222 27.5907 43.5159 27.8297 43.7507C28.0684 43.985 28.4453 44.0541 28.961 43.9558C33.3919 42.4488 37.0061 39.7327 39.8036 35.8076C42.6009 31.8829 44 27.464 44 22.55C43.999 18.4597 43.0149 14.6869 41.0488 11.2318Z"/>
    </symbol>
</svg>