<svg xmlns="http://www.w3.org/2000/svg" width="44" height="44" viewBox="0 0 44 44">
	<symbol id="idIco" viewBox="0 0 44 44">
		<path fill="currentColor" d="M22 0C9.8551 0 0 9.84612 0 22C0 34.1449 9.84612 44 22 44C34.1449 44 44 34.1539 44 22C44 9.84612 34.1539 0 22 0ZM22.0547 8.1673C24.1101 8.1673 25.7762 9.83346 25.7762 11.8888C25.7762 13.9441 24.1101 15.6103 22.0547 15.6103C19.9994 15.6103 18.3332 13.9441 18.3332 11.8888C18.3332 9.83346 19.9994 8.1673 22.0547 8.1673ZM25.764 34.242H18.3576C17.5124 34.242 16.3935 33.1109 16.3935 32.3265C16.3935 31.5421 17.4515 30.4597 18.2968 30.4597V23.0715C17.4515 23.0715 16.3327 21.9283 16.3327 21.1438C16.3327 20.3594 17.4515 19.2892 18.2968 19.2892H23.9459C24.6938 19.2892 25.7884 20.5236 25.7884 21.2168V30.4597C26.81 30.5205 27.6673 31.6029 27.6673 32.3873C27.6673 33.1596 26.6093 34.242 25.764 34.242Z"/>
	</symbol>
</svg>