<svg xmlns="http://www.w3.org/2000/svg" width="44" height="44">
	<symbol id="idIco" viewBox="0 0 44 44">
		<path fill="currentColor" d="M22 0C34.145 0 44 9.84598 44 21.9999C44 34.1448 34.1539 44 22 44C9.85501 44 0 34.1537 0 21.9999C0 9.84598 9.84604 0 22 0ZM29.1884 26.838C27.9332 26.838 26.9155 27.8557 26.9155 29.1109C26.9155 30.3663 27.9332 31.3837 29.1884 31.3837C30.4438 31.3837 31.4612 30.3663 31.4612 29.1109C31.4612 27.8557 30.4438 26.838 29.1884 26.838ZM14.8116 11.4578C12.9166 11.4578 11.3806 12.9941 11.3806 14.8888C11.3806 16.7839 12.9166 18.3198 14.8116 18.3198C16.7064 18.3198 18.2427 16.7839 18.2427 14.8888C18.2427 12.9941 16.7064 11.4578 14.8116 11.4578ZM14.8889 26.3362C13.3138 26.3362 12.037 27.6131 12.037 29.1882C12.037 30.7633 13.3138 32.0401 14.8889 32.0401C16.464 32.0401 17.7409 30.7633 17.7409 29.1882C17.7409 27.6131 16.464 26.3362 14.8889 26.3362ZM22.0547 29.5487C20.6395 29.5487 19.4923 30.6958 19.4923 32.111C19.4923 33.5263 20.6395 34.6734 22.0547 34.6734C23.47 34.6734 24.6171 33.5263 24.6171 32.111C24.6171 30.6958 23.47 29.5487 22.0547 29.5487ZM11.8887 18.9131C10.1538 18.9131 8.74725 20.3197 8.74725 22.0546C8.74725 23.7898 10.1538 25.196 11.8887 25.196C13.6236 25.196 15.0302 23.7898 15.0302 22.0546C15.0302 20.3197 13.6236 18.9131 11.8887 18.9131ZM29.1111 13.1177C28.1756 13.1177 27.4173 13.876 27.4173 14.8115C27.4173 15.747 28.1756 16.5053 29.1111 16.5053C30.0466 16.5053 30.8049 15.747 30.8049 14.8115C30.8049 13.876 30.0466 13.1177 29.1111 13.1177ZM32.1113 19.9618C31.0159 19.9618 30.1279 20.8498 30.1279 21.9451C30.1279 23.0405 31.0159 23.9285 32.1113 23.9285C33.2066 23.9285 34.0946 23.0405 34.0946 21.9451C34.0946 20.8498 33.2066 19.9618 32.1113 19.9618ZM21.9453 10.4844C21.1696 10.4844 20.541 11.1133 20.541 11.8887C20.541 12.6643 21.1696 13.2929 21.9453 13.2929C22.7207 13.2929 23.3495 12.6643 23.3495 11.8887C23.3495 11.1133 22.7207 10.4844 21.9453 10.4844Z"/>
	</symbol>
</svg>