<svg xmlns="http://www.w3.org/2000/svg" width="44" height="44">
    <symbol id="idIco" viewBox="0 0 44 44">
        <path fill-rule="evenodd" clip-rule="evenodd" fill="currentColor" d="M5.61676 21.7257C5.61676 21.2057 5.63772 20.6502 5.67309 20.0896L5.68488 19.8905C5.78443 18.24 5.85517 17.0794 6.4525 15.9686C7.0066 14.9416 8.02573 13.9827 9.08415 13.4928C10.229 12.9636 11.518 12.9636 13.3716 12.9649H13.6165C14.4352 12.9649 14.7129 12.961 14.9749 12.9164C15.2552 12.8693 15.529 12.7881 15.7884 12.6728C16.0307 12.5654 16.2665 12.4161 16.949 11.9654L17.3551 11.6969C19.2309 10.4603 20.7347 9.46872 21.9739 8.86747C23.2327 8.25573 24.4719 7.91515 25.719 8.34088C26.1329 8.48235 26.5324 8.68539 26.8901 8.93689C27.8646 9.62198 28.3284 10.666 28.5904 11.8672C28.724 12.4802 28.8157 13.1863 28.8851 13.984C29.1497 16.4847 29.2348 21.0917 29.2348 21.7257C29.2348 22.3584 29.1497 26.9667 28.8851 29.4673C28.8157 30.2651 28.724 30.9711 28.5904 31.5842C28.3284 32.7854 27.8646 33.8294 26.8901 34.5145C26.5324 34.766 26.1329 34.969 25.719 35.1105C24.4719 35.5362 23.2327 35.1957 21.9739 34.5839C20.7347 33.9827 19.2309 32.991 17.3551 31.7545L16.949 31.4859C16.2665 31.0353 16.0307 30.886 15.7884 30.7786C15.529 30.6633 15.2552 30.5821 14.9749 30.5336C14.7129 30.4904 14.4352 30.4865 13.6165 30.4865H13.3716C11.518 30.4878 10.229 30.4878 9.08415 29.9586C8.02573 29.4687 7.0066 28.5098 6.4525 27.4828C5.85517 26.372 5.78443 25.2114 5.68488 23.5609L5.67309 23.3618C5.63772 22.8011 5.61676 22.2457 5.61676 21.7257ZM7.89342 21.7257C7.89342 22.2012 7.91307 22.7094 7.94451 23.2229L7.9563 23.4234C8.03097 24.6717 8.00346 25.5638 8.45669 26.4034C8.78942 27.0217 9.40246 27.5981 10.0391 27.8928C10.9259 28.3028 11.9346 28.2111 13.3702 28.2111H13.6165C14.6632 28.2111 15.0195 28.2334 15.3535 28.2897C15.8198 28.3696 16.2744 28.5059 16.708 28.6958C17.0184 28.8333 17.3276 29.0102 18.2013 29.5866L18.6074 29.8538C20.381 31.0222 21.797 31.968 22.9681 32.5378C23.6532 32.8705 24.3056 33.1888 24.9841 32.957C25.195 32.8849 25.3994 32.7815 25.5814 32.6531C26.0818 32.3007 26.2325 31.7165 26.3674 31.0995C26.4827 30.569 26.5586 29.9586 26.6189 29.2682C26.6202 29.2551 26.6215 29.242 26.6228 29.2276C26.8783 26.8043 26.9595 22.34 26.9595 21.7257C26.9595 21.1113 26.8783 16.6471 26.6228 14.2237C26.6215 14.2093 26.6202 14.1962 26.6189 14.1831C26.5586 13.4928 26.4827 12.8824 26.3674 12.3519C26.2325 11.7349 26.0818 11.1507 25.5814 10.7983C25.3994 10.6699 25.195 10.5664 24.9841 10.4944C24.3056 10.2625 23.6532 10.5808 22.9681 10.9136C21.797 11.4834 20.3797 12.4278 18.6074 13.5976L18.2013 13.8648C17.3276 14.4412 17.0184 14.618 16.708 14.7543C16.2744 14.9455 15.8198 15.0818 15.3535 15.1603C15.0195 15.218 14.6632 15.2403 13.6165 15.2403H13.3702C11.9346 15.2403 10.9259 15.1472 10.0391 15.5586C9.40246 15.8533 8.78942 16.4297 8.45669 17.0479C8.00346 17.8876 8.03097 18.7797 7.9563 20.028L7.94451 20.2284C7.91307 20.7419 7.89342 21.2489 7.89342 21.7257ZM33.8065 21.7257C33.8065 23.4168 33.6048 24.656 33.3899 25.4957C33.2825 25.9148 33.1712 26.2331 33.0821 26.4571C33.0376 26.5698 32.997 26.6576 32.9655 26.7231C32.9511 26.7558 32.8974 26.8567 32.8974 26.8567C32.5896 27.4055 31.8966 27.602 31.3464 27.2968C30.8028 26.9942 30.6011 26.313 30.8906 25.7642C30.8919 25.7616 30.9325 25.6751 30.96 25.6083C31.0124 25.476 31.0923 25.2507 31.1762 24.9285C31.3412 24.2814 31.5207 23.2334 31.5207 21.7257C31.5207 20.2167 31.3412 19.17 31.1762 18.5229C31.0923 18.1994 31.0124 17.9754 30.96 17.8431C30.9325 17.7763 30.8919 17.6898 30.8906 17.6859C30.6011 17.1383 30.8028 16.4572 31.3464 16.1546C31.8966 15.8494 32.5896 16.0459 32.8974 16.5947C32.8974 16.5947 32.9511 16.6956 32.9655 16.7283C32.997 16.7938 33.0376 16.8816 33.0821 16.9942C33.1712 17.2182 33.2825 17.5366 33.3899 17.9557C33.6048 18.7954 33.8065 20.0346 33.8065 21.7257ZM38.3782 21.7257C38.3782 25.0647 37.7808 27.4907 37.1586 29.1071C36.8482 29.914 36.5325 30.5166 36.2862 30.9279C36.1631 31.1336 36.057 31.2908 35.9771 31.4021C35.9378 31.4584 35.905 31.5017 35.8788 31.5357C35.8657 31.5514 35.8238 31.6038 35.8225 31.6065C35.4164 32.0859 34.6999 32.1488 34.2178 31.7466C33.7371 31.3458 33.669 30.6345 34.0606 30.1498C34.0619 30.1472 34.0947 30.1053 34.117 30.0738C34.1628 30.011 34.2348 29.9036 34.3265 29.7516C34.5086 29.449 34.7641 28.9656 35.0247 28.2871C35.5461 26.9326 36.0923 24.7857 36.0923 21.7257C36.0923 18.6657 35.5461 16.5187 35.0247 15.1643C34.7641 14.4857 34.5086 14.0024 34.3265 13.6998C34.2348 13.5478 34.1628 13.4404 34.117 13.3775C34.0947 13.3461 34.0606 13.3016 34.0606 13.3016C33.669 12.8169 33.7371 12.1056 34.2178 11.7048C34.6999 11.3026 35.4164 11.3655 35.8225 11.8449C35.8238 11.8475 35.8657 11.8999 35.8788 11.9157C35.905 11.9484 35.9378 11.9929 35.9771 12.0493C36.057 12.1606 36.1631 12.3178 36.2862 12.5235C36.5325 12.9348 36.8482 13.536 37.1586 14.3443C37.7808 15.9607 38.3782 18.3867 38.3782 21.7257Z"/>
    </symbol>
</svg>

