<svg xmlns="http://www.w3.org/2000/svg" width="44" height="44">
    <symbol id="idIco" viewBox="0 0 44 44">
        <path fill-rule="evenodd" clip-rule="evenodd" fill="currentColor" d="M44 22C44 34.15 34.15 44 22 44C9.85 44 0 34.15 0 22C0 9.85 9.85 0 22 0C34.15 0 44 9.85 44 22ZM33.667 11.872C34.008 11.532 34.008 10.979 33.667 10.639C33.327 10.298 32.774 10.298 32.434 10.639L27.258 15.814C27.205 15.205 27.135 14.666 27.033 14.198C26.833 13.281 26.479 12.484 25.735 11.961C25.462 11.769 25.157 11.614 24.841 11.506C23.889 11.181 22.943 11.441 21.982 11.908C21.036 12.367 19.888 13.124 18.456 14.068L18.146 14.273C17.625 14.617 17.445 14.731 17.26 14.813C17.062 14.901 16.853 14.963 16.639 14.999C16.439 15.033 16.227 15.036 15.602 15.036H15.415C14 15.035 13.016 15.035 12.142 15.439C11.334 15.813 10.556 16.545 10.133 17.329C9.677 18.177 9.623 19.063 9.547 20.323L9.538 20.475C9.511 20.903 9.495 21.327 9.495 21.724C9.495 22.122 9.511 22.545 9.538 22.974L9.547 23.125C9.623 24.386 9.677 25.272 10.133 26.12C10.556 26.904 11.334 27.636 12.142 28.01C12.852 28.338 13.634 28.4 14.662 28.411L11.496 31.576C11.155 31.917 11.155 32.469 11.496 32.81C11.837 33.151 12.389 33.151 12.73 32.81L33.667 11.872ZM32.195 15.113C31.756 15.311 31.56 15.828 31.759 16.267C32.201 17.247 32.76 19.018 32.76 21.724C32.76 24.061 32.343 25.699 31.945 26.733C31.746 27.251 31.551 27.62 31.412 27.851C31.342 27.967 31.287 28.049 31.252 28.097C31.235 28.121 31.209 28.155 31.209 28.155C30.91 28.525 30.962 29.068 31.329 29.374C31.699 29.682 32.249 29.632 32.558 29.262L32.573 29.244C32.579 29.235 32.587 29.225 32.597 29.213C32.617 29.187 32.642 29.154 32.672 29.111C32.733 29.026 32.814 28.906 32.908 28.749C33.096 28.435 33.337 27.975 33.574 27.359C34.049 26.125 34.505 24.274 34.505 21.724C34.505 18.769 33.892 16.754 33.349 15.55C33.151 15.11 32.634 14.915 32.195 15.113ZM29.752 18.544C29.28 18.642 28.977 19.104 29.075 19.575C29.178 20.071 29.27 20.779 29.27 21.724C29.27 22.876 29.133 23.675 29.007 24.169C28.943 24.415 28.882 24.587 28.842 24.688C28.821 24.739 28.79 24.805 28.789 24.807C28.568 25.226 28.722 25.746 29.137 25.977C29.557 26.21 30.086 26.06 30.321 25.641C30.321 25.641 30.362 25.564 30.373 25.539C30.397 25.489 30.428 25.422 30.462 25.336C30.53 25.165 30.615 24.922 30.697 24.602C30.861 23.961 31.015 23.016 31.015 21.724C31.015 20.665 30.911 19.838 30.783 19.221C30.685 18.749 30.223 18.446 29.752 18.544ZM27.525 21.724C27.525 21.243 27.135 20.852 26.653 20.852C26.426 20.852 26.22 20.938 26.065 21.08L25.982 21.166L19.005 28.464C18.603 28.884 18.696 29.569 19.195 29.867C20.404 30.659 21.404 31.291 22.256 31.669C23.12 32.051 23.978 32.237 24.841 31.943C25.157 31.835 25.462 31.68 25.735 31.488C26.556 30.911 26.904 29.999 27.092 28.952C27.277 27.924 27.341 26.561 27.42 24.862L27.423 24.795C27.483 23.499 27.525 22.366 27.525 21.724Z"/>
    </symbol>
</svg>
