<svg xmlns="http://www.w3.org/2000/svg" width="44" height="44">
    <symbol id="idIco" viewBox="0 0 44 44">
        <path fill-rule="evenodd" clip-rule="evenodd" fill="currentColor" d="M12.3809 30.4796C10.8202 30.4518 9.89963 30.3424 9.07276 29.9599C8.0294 29.4772 6.98599 28.4953 6.44064 27.4833C5.90014 26.4801 5.78714 25.4462 5.66 23.3603C5.64272 23.077 5.629 22.7975 5.61953 22.5249C5.59772 21.8943 6.09198 21.3645 6.72257 21.3427C7.35321 21.3208 7.88292 21.8151 7.90473 22.4457C7.91351 22.6988 7.92632 22.9583 7.94232 23.2212C8.03987 24.821 8.03909 25.6293 8.4536 26.3987C8.78081 27.0059 9.40683 27.5951 10.0329 27.8846C10.8371 28.2568 11.7643 28.2017 13.608 28.2017C14.0456 28.2017 14.374 28.2037 14.6459 28.2147L26.7336 16.127C26.651 14.5309 26.56 13.2931 26.3538 12.3468C26.195 11.618 26.003 11.1019 25.5719 10.7989C25.3902 10.6712 25.1867 10.5677 24.9764 10.4959L24.9763 10.4959C24.404 10.3006 23.7929 10.5141 22.9679 10.9149C21.8281 11.4686 20.4175 12.4046 18.5333 13.647L18.1995 13.8671C17.4676 14.3496 17.0975 14.5839 16.7035 14.7578C16.2701 14.9491 15.8145 15.0858 15.3473 15.1647C14.9227 15.2364 14.4847 15.2445 13.608 15.2445C11.7643 15.2445 10.8371 15.1894 10.0329 15.5615C9.40683 15.8512 8.78081 16.4402 8.4536 17.0474C8.15433 17.6029 7.46031 17.8109 6.90481 17.5117C6.34931 17.2124 6.14133 16.5184 6.44064 15.9629C6.98599 14.9508 8.02935 13.969 9.07276 13.4863C10.0959 13.0129 11.2626 12.9579 13.608 12.9579C14.2925 12.9579 14.635 12.966 14.9665 12.91C15.2469 12.8627 15.5202 12.7807 15.7803 12.6659C16.0879 12.5302 16.3694 12.3348 16.9409 11.9581L17.2746 11.738C19.6943 10.1427 21.3955 9.03844 22.729 8.52507C23.8843 8.08028 24.8349 8.03163 25.7148 8.33185C26.1286 8.47302 26.5291 8.6768 26.8867 8.92814C27.5864 9.41989 28.0803 10.1288 28.4035 11.1574C28.6333 11.8886 28.7763 12.8163 28.8798 13.9808L34.3497 8.51093C34.7959 8.06473 35.5204 8.06473 35.9666 8.51093C36.4128 8.95713 36.4128 9.68161 35.9666 10.1278L16.1853 29.9089C16.0723 30.1413 15.8845 30.3257 15.6578 30.4364L11.142 34.9523C10.6958 35.3984 9.97129 35.3984 9.52509 34.9523C9.07893 34.5061 9.07893 33.7816 9.52509 33.3354L12.3809 30.4796ZM26.9462 21.7231C26.9462 21.0921 27.4585 20.5798 28.0895 20.5798C28.7205 20.5798 29.2328 21.0921 29.2328 21.7231C29.2328 22.5447 29.1786 24.0218 29.0985 25.7478C28.965 28.6205 28.8568 30.63 28.4872 32.0013C28.167 33.1892 27.6478 33.9831 26.8869 34.5179C26.5291 34.7694 26.1286 34.9732 25.7147 35.1143C24.9048 35.3907 24.0372 35.3714 23.0085 35.0224C21.821 34.6196 20.3436 33.7221 18.3166 32.3937C17.7888 32.0479 17.6411 31.3386 17.9869 30.8108C18.3328 30.2831 19.042 30.1354 19.5698 30.4812C21.1017 31.4851 22.2788 32.2329 23.2529 32.6637C23.9425 32.9688 24.4762 33.1209 24.9765 32.9502L24.9767 32.9502C25.1867 32.8785 25.3901 32.7751 25.5718 32.6473L25.5719 32.6472C26.0661 32.2999 26.2539 31.685 26.415 30.7903C26.6378 29.5529 26.7105 27.8764 26.8144 25.6417C26.8924 23.9612 26.9462 22.5231 26.9462 21.7231ZM35.8274 31.6016C35.4234 32.0863 34.7019 32.1519 34.2172 31.748C33.7324 31.344 33.6668 30.6225 34.0708 30.1377C34.0708 30.1377 36.0924 27.6002 36.0924 21.7234C36.0924 18.244 35.386 15.9141 34.7803 14.5717C34.5208 13.9966 34.777 13.3189 35.3522 13.0595C35.9273 12.7999 36.605 13.0562 36.8645 13.6313C37.5503 15.1512 38.3789 17.7839 38.3789 21.7234C38.3789 28.6518 35.8274 31.6016 35.8274 31.6016ZM32.8997 26.8518C32.5933 27.4034 31.8966 27.6024 31.3451 27.2959C30.7935 26.9895 30.5944 26.2929 30.9009 25.7413C30.9009 25.7413 31.5192 24.5304 31.5192 21.7234C31.5192 20.5098 31.4032 19.5806 31.2634 18.907C31.1351 18.2892 31.5326 17.6835 32.1504 17.5552C32.7682 17.427 33.374 17.8245 33.5022 18.4423C33.6651 19.2272 33.8058 20.3093 33.8058 21.7234C33.8058 25.3193 32.8997 26.8518 32.8997 26.8518Z"/>
    </symbol>
</svg>

