<svg xmlns="http://www.w3.org/2000/svg" width="44" height="44">
    <symbol id="idIco" viewBox="0 0 44 44">
        <path fill-rule="evenodd" clip-rule="evenodd" fill="currentColor" d="M44 22C44 34.15 34.15 44 22 44C9.85 44 0 34.15 0 22C0 9.85 9.85 0 22 0C34.15 0 44 9.85 44 22ZM9.495 21.724C9.495 22.121 9.511 22.545 9.538 22.973L9.547 23.125C9.623 24.385 9.677 25.271 10.133 26.119C10.556 26.903 11.334 27.635 12.142 28.009C13.016 28.413 14 28.413 15.415 28.412H15.602C16.227 28.412 16.439 28.415 16.639 28.448C16.853 28.485 17.062 28.547 17.26 28.635C17.445 28.717 17.625 28.831 18.146 29.175L18.456 29.38C19.888 30.324 21.036 31.081 21.982 31.54C22.943 32.007 23.889 32.267 24.841 31.942C25.157 31.834 25.462 31.679 25.735 31.487C26.479 30.964 26.833 30.167 27.033 29.25C27.135 28.782 27.205 28.243 27.258 27.634C27.46 25.725 27.525 22.207 27.525 21.724C27.525 21.24 27.46 17.723 27.258 15.814C27.205 15.205 27.135 14.666 27.033 14.198C26.833 13.281 26.479 12.484 25.735 11.961C25.462 11.769 25.157 11.614 24.841 11.506C23.889 11.181 22.943 11.441 21.982 11.908C21.036 12.367 19.888 13.124 18.456 14.068L18.146 14.273C17.625 14.617 17.445 14.731 17.26 14.813C17.062 14.901 16.853 14.963 16.639 14.999C16.439 15.033 16.227 15.036 15.602 15.036H15.415C14 15.035 13.016 15.035 12.142 15.439C11.334 15.813 10.556 16.545 10.133 17.329C9.677 18.177 9.623 19.063 9.547 20.323L9.538 20.475C9.511 20.903 9.495 21.327 9.495 21.724ZM31.015 21.724C31.015 20.433 30.861 19.487 30.697 18.846C30.615 18.526 30.53 18.283 30.462 18.112C30.428 18.026 30.397 17.959 30.373 17.909C30.362 17.884 30.321 17.807 30.321 17.807C30.086 17.388 29.557 17.238 29.137 17.471C28.722 17.702 28.568 18.222 28.789 18.64C28.79 18.643 28.821 18.709 28.842 18.76C28.882 18.861 28.943 19.032 29.007 19.279C29.133 19.773 29.27 20.572 29.27 21.724C29.27 22.875 29.133 23.675 29.007 24.169C28.943 24.415 28.882 24.587 28.842 24.688C28.821 24.739 28.79 24.805 28.789 24.807C28.568 25.226 28.722 25.746 29.137 25.977C29.557 26.21 30.086 26.06 30.321 25.641C30.321 25.641 30.362 25.564 30.373 25.539C30.397 25.489 30.428 25.422 30.462 25.336C30.53 25.165 30.615 24.922 30.697 24.602C30.861 23.961 31.015 23.015 31.015 21.724ZM34.505 21.724C34.505 19.175 34.049 17.323 33.574 16.089C33.337 15.472 33.096 15.013 32.908 14.699C32.814 14.542 32.733 14.422 32.672 14.337C32.642 14.294 32.617 14.26 32.597 14.235C32.587 14.223 32.555 14.183 32.554 14.181C32.244 13.815 31.697 13.767 31.329 14.074C30.962 14.38 30.91 14.923 31.209 15.293C31.209 15.293 31.235 15.327 31.252 15.351C31.287 15.399 31.342 15.481 31.412 15.597C31.551 15.828 31.746 16.197 31.945 16.715C32.343 17.749 32.76 19.388 32.76 21.724C32.76 24.06 32.343 25.699 31.945 26.733C31.746 27.251 31.551 27.62 31.412 27.851C31.342 27.967 31.287 28.049 31.252 28.097C31.235 28.121 31.21 28.153 31.209 28.155C30.91 28.525 30.962 29.068 31.329 29.374C31.697 29.681 32.244 29.633 32.554 29.267C32.555 29.265 32.587 29.225 32.597 29.213C32.617 29.187 32.642 29.154 32.672 29.111C32.733 29.026 32.814 28.906 32.908 28.749C33.096 28.435 33.337 27.975 33.574 27.359C34.049 26.125 34.505 24.273 34.505 21.724Z"/>
    </symbol>
</svg>
