<svg xmlns="http://www.w3.org/2000/svg" width="44" height="44">
    <symbol id="idIco" viewBox="0 0 44 44">
        <path fill="currentColor" d="M22.0011 0C9.85171 0 0 9.85172 0 22.0012C0 34.1506 9.85171 44 22.0011 44C34.1506 44 44 34.1506 44 22.0012C44 9.85172 34.1506 0 22.0011 0ZM32.6982 10.6596C32.6982 10.6596 35.4232 9.59718 35.1967 12.1774C35.122 13.2422 34.4401 16.962 33.9101 20.9854L32.0911 32.906C32.0911 32.906 31.9416 34.6527 30.5779 34.9562C29.2142 35.2598 27.1687 33.8937 26.7904 33.5902C26.4892 33.3613 21.1115 29.9452 19.2177 28.2756C18.6877 27.8202 18.0829 26.9072 19.2948 25.8447L27.2458 18.2533C28.1541 17.3403 29.0624 15.2154 25.2773 17.7957L14.676 25.0111C14.676 25.0111 13.4641 25.77 11.1921 25.0858L6.26972 23.568C6.26972 23.568 4.45303 22.4285 7.55635 21.289C15.129 17.7209 24.4437 14.0759 32.6982 10.6596Z"/>
    </symbol>
</svg>