<svg xmlns="http://www.w3.org/2000/svg" width="44" height="44">
    <symbol id="idIco" viewBox="0 0 44 44">
        <path fill-rule="evenodd" clip-rule="evenodd" fill="currentColor" d="M44 22C44 34.15 34.15 44 22 44C9.85 44 0 34.15 0 22C0 9.85 9.85 0 22 0C34.15 0 44 9.85 44 22ZM33.701 14.795C34.863 14.648 35.971 14.323 37 13.841C36.23 15.056 35.256 16.122 34.132 16.979C34.144 17.238 34.149 17.5 34.149 17.762C34.149 25.768 28.371 35 17.805 35C14.561 35 11.542 33.996 9 32.277C9.449 32.334 9.906 32.363 10.371 32.363C13.063 32.363 15.539 31.393 17.505 29.769C14.992 29.72 12.869 27.968 12.139 25.561C12.49 25.632 12.85 25.671 13.22 25.671C13.744 25.671 14.252 25.596 14.733 25.458C12.107 24.9 10.126 22.452 10.126 19.515V19.44C10.901 19.893 11.786 20.166 12.728 20.198C11.186 19.111 10.173 17.257 10.173 15.155C10.173 14.044 10.456 13.004 10.951 12.109C13.784 15.775 18.016 18.188 22.791 18.44C22.693 17.996 22.642 17.533 22.642 17.059C22.642 13.713 25.214 11 28.386 11C30.037 11 31.531 11.736 32.579 12.914C33.887 12.641 35.118 12.138 36.226 11.443C35.798 12.857 34.887 14.044 33.701 14.795Z"/>
    </symbol>
</svg>
