<svg xmlns="http://www.w3.org/2000/svg" width="44" height="44">
    <symbol id="idIco" viewBox="0 0 44 44">
        <path fill-rule="evenodd" clip-rule="evenodd" fill="currentColor" d="M3.09295 3.09295C0 6.18591 0 11.1639 0 21.12V22.88C0 32.8361 0 37.8141 3.09295 40.9071C6.18591 44 11.1639 44 21.12 44H22.88C32.8361 44 37.8141 44 40.9071 40.9071C44 37.8141 44 32.8361 44 22.88V21.12C44 11.1639 44 6.18591 40.9071 3.09295C37.8141 0 32.8361 0 22.88 0H21.12C11.1639 0 6.18591 0 3.09295 3.09295ZM7.42511 13.3834C7.66344 24.8234 13.3834 31.6984 23.4117 31.6984H23.9802V25.1534C27.6652 25.5201 30.4516 28.2151 31.5699 31.6984H36.7768C35.3468 26.4918 31.5883 23.6134 29.2416 22.5134C31.5883 21.1568 34.8883 17.8568 35.6766 13.3834H30.9465C29.9198 17.0134 26.8769 20.3134 23.9802 20.6251V13.3834H19.25V26.0701C16.3167 25.3368 12.6134 21.7801 12.4484 13.3834H7.42511Z"/>
    </symbol>
</svg>