<svg xmlns="http://www.w3.org/2000/svg" width="44" height="44">
    <symbol id="idIco" viewBox="0 0 44 44">
        <path fill-rule="evenodd" clip-rule="evenodd" fill="currentColor" d="M39.2156 7.91765C41.1003 8.41176 42.5863 9.85882 43.0937 11.6941C44.0361 15.0471 43.9998 22.0353 43.9998 22.0353C43.9998 22.0353 43.9998 28.9882 43.0937 32.3412C42.5863 34.1765 41.1003 35.6235 39.2156 36.1176C35.7725 37 21.9999 37 21.9999 37C21.9999 37 8.26356 37 4.78416 36.0824C2.89949 35.5882 1.4135 34.1412 0.906092 32.3059C0 28.9882 0 22 0 22C0 22 0 15.0471 0.906092 11.6941C1.4135 9.85882 2.93574 8.37647 4.78416 7.88235C8.22731 7 21.9999 7 21.9999 7C21.9999 7 35.7725 7 39.2156 7.91765ZM29 22L18 29V15L29 22Z"/>
    </symbol>
</svg>